<svg width="673" height="60" viewBox="0 0 673 60" fill="none" xmlns="http://www.w3.org/2000/svg">
<g clip-path="url(#clip0_11_2)">
<path d="M0.0100021 1.04993H11.56V18.7899L23.61 1.04993H37.64L17.26 21.8399L54.47 1.04993V14.2499L21.06 26.7899L54.47 23.6599V36.1999L21.06 33.0699L54.47 45.6099V58.8099L17.26 38.0199L37.64 58.8099H23.6L11.55 41.0699V58.8099H0V1.04993H0.0100021Z" fill="white"/>
<path d="M62.71 1.04993H76.32L74.2599 38.4199L91.17 1.04993H102.31V58.7999H88.7L90.7599 21.4299L73.85 58.7999H62.71V1.04993Z" fill="white"/>
<path d="M110.56 1.04993H124.17V23.3299H135.72V1.04993H149.33V58.7999H135.72V32.3999H124.17V58.7999H110.56V1.04993Z" fill="white"/>
<path d="M542 2.04993H555.61V24.3299H567.16V2.04993H580.77V59.7999H567.16V33.3999H555.61V59.7999H542V2.04993Z" fill="white"/>
<path d="M155.6 29.9199C155.6 13.4199 163.19 -0.110107 178.45 -0.110107C193.71 -0.110107 201.3 13.4199 201.3 29.9199C201.3 46.4199 193.71 59.9499 178.45 59.9499C163.19 59.9599 155.6 46.4299 155.6 29.9199ZM178.45 51.3799C183.81 51.3799 186.95 41.8899 186.95 29.9299C186.95 17.9699 183.81 8.47989 178.45 8.47989C173.09 8.47989 169.95 17.9699 169.95 29.9299C169.96 41.8899 173.09 51.3799 178.45 51.3799Z" fill="white"/>
<path d="M255 1H294.19V58.75H280.58V10.07H268.62V58.75H255.01V1H255Z" fill="white"/>
<path d="M235.95 38.53L248.9 40.51L248.49 42.49C246.26 53.22 239.5 60.06 228.36 60.06C213.1 60.06 206 46.53 206 30.03C206 13.53 213.1 0 228.36 0C239.09 0 245.93 6.85 248.33 16.91L248.74 18.64L235.46 21.61C234.47 13.61 232.08 8.57 228.36 8.57C223 8.57 220.36 18.06 220.36 30.02C220.36 41.98 223 51.47 228.36 51.47C232.41 51.49 234.96 46.12 235.95 38.53Z" fill="white"/>
<path d="M312.36 38.28V59H301.32V0.999998C306.867 0.199999 312.733 -0.200001 318.92 -0.200001C326.92 -0.200001 332.92 1.4 336.92 4.6C340.92 7.74666 342.92 12.3333 342.92 18.36C342.92 25.0267 340.973 30.0667 337.08 33.48C333.24 36.8933 327.533 38.6 319.96 38.6C316.867 38.6 314.333 38.4933 312.36 38.28ZM312.36 29.64C314.387 29.96 316.573 30.12 318.92 30.12C323.24 30.12 326.52 29.1867 328.76 27.32C331.053 25.4 332.2 22.68 332.2 19.16C332.2 12.0667 327.773 8.52 318.92 8.52C316.52 8.52 314.333 8.68 312.36 9V29.64Z" fill="white"/>
<path d="M358.64 36.36H374.16L366.48 10.44H366.32L358.64 36.36ZM356.16 44.92L351.92 59H340.32L360.56 0.599998H372.56L392.88 59H380.88L376.72 44.92H356.16Z" fill="white"/>
<path d="M410.36 25.12H413.32C418.28 25.12 421.853 24.4533 424.04 23.12C426.28 21.7333 427.4 19.7067 427.4 17.04C427.4 14.48 426.493 12.5867 424.68 11.36C422.92 10.1333 419.987 9.52 415.88 9.52C413.853 9.52 412.013 9.68 410.36 10V25.12ZM410.36 33.44V51.6C412.227 51.92 414.227 52.08 416.36 52.08C420.787 52.08 424.013 51.28 426.04 49.68C428.12 48.0267 429.16 45.52 429.16 42.16C429.16 39.1733 427.987 36.9867 425.64 35.6C423.293 34.16 419.373 33.44 413.88 33.44H410.36ZM439.88 43.2C439.88 49.0667 437.96 53.4667 434.12 56.4C430.28 59.3333 424.28 60.8 416.12 60.8C410.2 60.8 404.6 60.4 399.32 59.6V2C404.333 1.2 409.667 0.799999 415.32 0.799999C430.253 0.799999 437.72 5.68 437.72 15.44C437.72 18.7467 436.627 21.6 434.44 24C432.253 26.3467 429.347 27.8667 425.72 28.56V28.72C430.093 29.3067 433.533 30.9333 436.04 33.6C438.6 36.2133 439.88 39.4133 439.88 43.2Z" fill="white"/>
<path d="M442 30.03C442 13.53 449.59 0 464.85 0C480.11 0 487.7 13.53 487.7 30.03C487.7 46.53 480.11 60.06 464.85 60.06C449.59 60.06 442 46.54 442 30.03ZM464.86 51.49C470.22 51.49 473.36 42 473.36 30.04C473.36 18.08 470.22 8.59 464.86 8.59C459.5 8.59 456.36 18.08 456.36 30.04C456.36 42 459.49 51.49 464.86 51.49Z" fill="white"/>
<path d="M522.96 39.6C520.027 41.2 516.56 42 512.56 42C505.093 42 499.707 40.4533 496.4 37.36C493.147 34.2667 491.52 29.2 491.52 22.16V1.6H502.48V20.8C502.48 25.44 503.307 28.5867 504.96 30.24C506.667 31.84 509.92 32.64 514.72 32.64C517.867 32.64 520.613 31.8933 522.96 30.4V1.6H534.16V60H522.96V39.6Z" fill="white"/>
<path d="M588 2H601.61L599.55 39.37L616.46 2H627.6V59.75H613.99L616.05 22.38L599.14 59.75H588V2Z" fill="white"/>
<path d="M634 2H647.61V27.99L658.75 2H672.78L656.69 29.97L673.19 59.75H657.93L647.62 33.76V59.75H634.01V2H634Z" fill="white"/>
</g>
<defs>
<clipPath id="clip0_11_2">
<rect width="673" height="60" fill="white"/>
</clipPath>
</defs>
</svg>
